# AST/ASF file generated using VICON BodyLanguage
# -----------------------------------------------
:version 1.10
:name VICON
:units
  mass 1.0
  length 0.45
  angle deg
:documentation
   .ast/.asf automatically generated from VICON data using
   VICON BodyBuilder and BodyLanguage model FoxedUp or BRILLIANT.MOD
:root
   order TX TY TZ RX RY RZ
   axis XYZ
   position 0 0 0  
   orientation 0 -0 0 
:bonedata
  begin
     id 1 
     name lhipjoint
     direction 0.515797 -0.759363 0.396637 
     length 2.47888 
     axis 0 -0 0  XYZ
  end
  begin
     id 2 
     name lfemur
     direction 0.34202 -0.939693 0  
     length 6.81885  
     axis 0 -0 20  XYZ
    dof rx ry rz
    limits (-160.0 20.0)
           (-70.0 70.0)
           (-60.0 70.0)
  end
  begin
     id 3 
     name ltibia
     direction 0.342037 -0.939687 0   
     length 7.89258   
     axis 0 -0 20   XYZ
    dof rx
    limits (-10.0 170.0)
  end
  begin
     id 4 
     name lfoot
     direction 0.173497 -0.476678 0.861787   
     length 2.51543   
     axis -90 -1.13533e-015 20   XYZ
    dof rx rz
    limits (-45.0 90.0)
           (-70.0 20.0)
  end
  begin
     id 5 
     name ltoes
     direction 1.53564e-011 -4.21897e-011 1   
     length 1.21388   
     axis -90 -1.13533e-015 20   XYZ
    dof rx
    limits (-90.0 20.0)
  end
  begin
     id 6 
     name rhipjoint
     direction -0.489454 -0.772941 0.403729   
     length 2.43534  
     axis 0 -0 0  XYZ 
  end
  begin
     id 7 
     name rfemur
     direction -0.34202 -0.939693 0   
     length 7.10357   
     axis 0 -0 -20   XYZ
    dof rx ry rz
    limits (-160.0 20.0)
           (-70.0 70.0)
           (-70.0 60.0)
  end
  begin
     id 8 
     name rtibia
     direction -0.34202 -0.939693 0   
     length 9.16127   
     axis 0 -0 -20   XYZ
    dof rx
    limits (-10.0 170.0)
 end
 begin
     id 9 
     name rfoot
     direction -0.270974 -0.748671 0.605033   
     length 1.74894  
     axis -90 1.13533e-015 -20   XYZ
    dof rx rz
    limits (-45.0 90.0)
           (-20.0 70.0)
  end
  begin
     id 10 
     name rtoes
     direction -1.53557e-011 -4.21759e-011 1   
     length 0.787585   
     axis -90 1.13533e-015 -20   XYZ
    dof rx
    limits (-90.0 20.0)
  end
  begin
     id 11 
     name lowerback
     direction -0.0140249 0.999561 0.0260968   
     length 2.16963   
     axis 0 -0 0   XYZ
    dof rx ry rz
    limits (-20.0 45.0)
           (-30.0 30.0)
           (-30.0 30.0)
  end
  begin
     id 12 
     name upperback
     direction 0.00860018 0.999959 -0.002711   
     length 2.1726   
     axis 0 -0 0   XYZ
    dof rx ry rz
    limits (-20.0 45.0)
           (-30.0 30.0)
           (-30.0 30.0)
  end
  begin
     id 13 
     name thorax
     direction 0.015211 0.999782 -0.0143191   
     length 2.17061   
     axis 0 -0 0   XYZ
    dof rx ry rz
    limits (-20.0 45.0)
           (-30.0 30.0)
           (-30.0 30.0)
  end
  begin
     id 14 
     name lowerneck
     direction -0.0140143 0.999447 0.030145   
     length 2.26749   
     axis 0 -0 0   XYZ
    dof rx ry rz
    limits (-20.0 45.0)
           (-30.0 30.0)
           (-30.0 30.0)
  end
  begin
     id 15 
     name upperneck
     direction 0.118062 0.961438 -0.248392   
     length 2.22728   
     axis 0 -0 0   XYZ
    dof rx ry rz
    limits (-20.0 45.0)
           (-30.0 30.0)
           (-30.0 30.0)
  end
  begin
     id 16
     name head
     direction 0.0431885 0.9954 -0.085514  
     length 2.28786  
     axis 0 -0 0   XYZ
    dof rx ry rz
    limits (-20.0 45.0)
           (-30.0 30.0)
           (-30.0 30.0)
  end
  begin
     id 17 
     name lclavicle
     direction 0.912126 0.409548 0.0172323  
     length 4.31571  
     axis 0 -0 0   XYZ
    dof ry rz
    limits (-20.0 10.0)
           (0.0 20.0)
  end
  begin
     id 18 
     name lhumerus
     direction 1 -4.48977e-011 1.93091e-027   
     length 5.13658   
     axis 180 -30 -90   XYZ
    dof rx ry rz
    limits (-60.0 90.0)
           (-90.0 90.0)
           (-90.0 90.0)
  end
  begin
     id 19
     name lradius
     direction 1 -4.48916e-011 6.84018e-027   
     length 3.22473   
     axis 180 -30 -90   XYZ
    dof rx
    limits (-10.0 170.0)
  end
  begin
     id 20
     name lwrist
     direction 1 -4.48987e-011 7.01981e-027   
     length 1.61236   
     axis -4.37994e-015 90 90   XYZ
    dof ry
    limits (-180.0 0.0)
 end
  begin
     id 21 
     name lhand
     direction 1 -4.49037e-011 1.40335e-026   
     length 0.936406   
     axis -8.96029e-015 90 90   XYZ
    dof rx rz
    limits (-90.0 90.0)
           (-45.0 45.0)
  end
  begin
     id 22 
     name lfingers
     direction 1 -4.48886e-011 2.8104e-026   
     length 0.754955   
     axis -1.79203e-014 90 90   XYZ
    dof rx
    limits (0.0 90.0)
  end
  begin
     id 23
     name lthumb
     direction 0.707107 -6.34937e-011 0.707107   
     length 1.08397   
     axis -90 45 -4.48555e-014   XYZ
    dof rx rz
    limits (-45.0 45.0)
           (-45.0 45.0)
  end
  begin
     id 24 
     name rclavicle
     direction -0.947962 0.317997 0.0156638   
     length 4.86918  
     axis 0 -0 0   XYZ 
    dof ry rz
    limits (-10.0 20.0)
           (-20.0 0.0)
  end
  begin
     id 25 
     name rhumerus
     direction -1 -4.48951e-011 2.80534e-018  
     length 5.60911   
     axis 180 30 90   XYZ
    dof rx ry rz
    limits (-90.0 60.0)
           (-90.0 90.0)
           (-90.0 90.0)
  end
  begin
     id 26 
     name rradius
     direction -1 -4.4898e-011 2.11315e-027   
     length 3.38704   
     axis 180 30 90   XYZ
    dof rx
    limits (-10.0 170.0)
  end
  begin
     id 27 
     name rwrist
     direction -1 -4.48933e-011 7.02314e-027   
     length 1.69352   
     axis -4.37994e-015 -90 -90   XYZ
    dof ry
    limits (-180.0 0.0)
  end
  begin
     id 28
     name rhand
     direction -1 -4.48937e-011 1.40458e-026   
     length 0.755878   
     axis -8.96029e-015 -90 -90   XYZ
    dof rx rz
    limits (-90.0 90.0)
           (-45.0 45.0)
  end
  begin
     id 29
     name rfingers
     direction -1 -4.4901e-011 2.80737e-026   
     length 0.609409   
     axis -1.79203e-014 -90 -90   XYZ
    dof rx
    limits (0.0 90.0)
  end
  begin
     id 30
     name rthumb
     direction -0.707107 -6.34968e-011 0.707107   
     length 0.874992   
     axis -90 -45 4.48555e-014   XYZ
    dof rx rz
    limits (-45.0 45.0)
           (-45.0 45.0)
  end
:hierarchy
  begin
    root lhipjoint rhipjoint lowerback
    lhipjoint lfemur
    lfemur ltibia
    ltibia lfoot
    lfoot ltoes
    rhipjoint rfemur
    rfemur rtibia
    rtibia rfoot
    rfoot rtoes
    lowerback upperback
    upperback thorax
    thorax lowerneck lclavicle rclavicle
    lowerneck upperneck
    upperneck head
    lclavicle lhumerus
    lhumerus lradius
    lradius lwrist
    lwrist lhand lthumb
    lhand lfingers
    rclavicle rhumerus
    rhumerus rradius
    rradius rwrist
    rwrist rhand rthumb
    rhand rfingers
  end

#!OML:ASF C:\ViconDB\ViconDB\414\Spring2016\041811\Spring2016.ASF
:FULLY-SPECIFIED
:DEGREES
31
root 12.9564 18.0942 9.80929 -173.584 -5.49231 -178.32
lowerback -7.7528 0.946503 -2.44512
upperback 0.520805 1.45146 0.534891
thorax 4.81776 0.643323 2.10046
lowerneck -12.0778 2.27773 -5.36931
upperneck 23.8509 0.0659825 12.1909
head 9.43279 0.366836 5.11125
rclavicle -1.29583e-014 1.59028e-015
rhumerus -83.4009 30.6809 -114.598
rradius 86.5049
rwrist 30.9278
rhand -47.8659 -0.692692
rfingers 7.12502
rthumb -20.5395 -29.6261
lclavicle -1.29583e-014 1.59028e-015
lhumerus -84.8542 -43.4431 119.864
lradius 75.5198
lwrist -28.7176
lhand -46.5492 -1.74
lfingers 7.12502
lthumb -19.2738 27.3249
rfemur 165.351 54.9871 -172.406
rtibia 28.3753
rfoot -54.1751 -45.3891
rtoes -28.0647
lfemur -7.42054 -12.2873 -13.8941
ltibia 24.6775
lfoot -25.805 6.0729
ltoes -12.3781
32
root 12.9429 18.0911 9.80599 -173.551 -5.50108 -178.352
lowerback -7.69184 0.979691 -2.47913
upperback 0.486392 1.49868 0.489816
thorax 4.74525 0.667765 2.07605
lowerneck -12.0286 2.25289 -5.37694
upperneck 23.7793 0.0156735 12.2758
head 9.40315 0.34941 5.13346
rclavicle 1.01877e-014 1.19271e-015
rhumerus -83.4164 30.6122 -114.623
rradius 86.491
rwrist 30.9618
rhand -47.8849 -0.712793
rfingers 7.12502
rthumb -20.5578 -29.6443
lclavicle 1.01877e-014 1.19271e-015
lhumerus -84.979 -43.5453 119.956
lradius 75.51
lwrist -28.6958
lhand -46.5298 -1.78069
lfingers 7.12502
lthumb -19.2552 27.2861
rfemur 165.401 54.7746 -172.494
rtibia 28.2933
rfoot -53.7898 -45.4651
rtoes -27.7663
lfemur -7.51943 -12.1528 -13.966
ltibia 24.7869
lfoot -25.8217 5.97347
ltoes -12.4488
33
root 12.9274 18.0868 9.80085 -173.499 -5.50399 -178.44
lowerback -7.72769 0.967777 -2.59296
upperback 0.513952 1.49422 0.506945
thorax 4.79132 0.661575 2.15872
lowerneck -12.1321 2.25317 -5.49062
upperneck 23.8034 0.0685483 12.231
head 9.42494 0.367467 5.14716
rclavicle -3.1818e-014 -1.88845e-014
rhumerus -83.4297 30.7099 -114.531
rradius 86.4646
rwrist 31.1467
rhand -47.8523 -0.757301
rfingers 7.12502
rthumb -20.5265 -29.6922
lclavicle -3.1818e-014 -1.88845e-014
lhumerus -84.8628 -43.5076 119.974
lradius 75.5014
lwrist -28.6814
lhand -46.5151 -1.79528
lfingers 7.12502
lthumb -19.241 27.2729
rfemur 165.459 54.6884 -172.653
rtibia 28.2118
rfoot -53.5239 -45.5324
rtoes -27.484
lfemur -7.62784 -11.8889 -14.0936
ltibia 24.8979
lfoot -25.805 5.74351
ltoes -12.4354
34
root 12.9095 18.0843 9.79622 -173.431 -5.53951 -178.495
lowerback -7.68352 0.971743 -2.62983
upperback 0.454792 1.50356 0.429644
thorax 4.70523 0.667847 2.09805
lowerneck -12.0819 2.25224 -5.28958
upperneck 23.7793 0.0245731 12.1899
head 9.41419 0.356615 5.0898
rclavicle -3.68249e-014 8.34896e-015
rhumerus -83.4756 30.6582 -114.662
rradius 86.4497
rwrist 31.1041
rhand -47.8566 -0.792237
rfingers 7.12502
rthumb -20.5306 -29.7266
lclavicle -3.68249e-014 8.34896e-015
lhumerus -85.0706 -43.5394 120.049
lradius 75.6502
lwrist -28.1091
lhand -46.3215 -2.44869
lfingers 7.12502
lthumb -19.0549 26.6379
rfemur 165.548 54.4618 -172.759
rtibia 28.1193
rfoot -53.1099 -45.6374
rtoes -27.2929
lfemur -7.80426 -11.3512 -14.1528
ltibia 25.0218
lfoot -25.6907 5.21683
ltoes -12.4232
35
root 12.893 18.0843 9.78747 -173.348 -5.45471 -178.396
lowerback -7.76454 1.0141 -2.55838
upperback 0.431141 1.55278 0.464467
thorax 4.72437 0.693083 2.10131
lowerneck -12.0865 2.24082 -5.33526
upperneck 23.7641 0.0228231 12.196
head 9.40939 0.35377 5.09948
rclavicle 3.60297e-015 -2.22639e-014
rhumerus -83.4972 30.7162 -114.7
rradius 86.3869
rwrist 30.9702
rhand -47.9253 -0.866143
rfingers 7.12502
rthumb -20.5966 -29.7934
lclavicle 3.60297e-015 -2.22639e-014
lhumerus -84.9841 -43.5208 120.002
lradius 75.5601
lwrist -28.4287
lhand -46.466 -2.09505
lfingers 7.12502
lthumb -19.1938 26.9778
rfemur 165.75 54.2381 -172.605
rtibia 28.0163
rfoot -52.7036 -45.7732
rtoes -26.5712
lfemur -7.97034 -10.9697 -14.0655
ltibia 25.168
lfoot -25.6957 4.93569
ltoes -12.3075
36
root 12.8746 18.0836 9.78641 -173.303 -5.5833 -178.51
lowerback -7.66933 1.00452 -2.63596
upperback 0.396941 1.54906 0.349783
thorax 4.63636 0.692353 2.0223
lowerneck -12.1143 2.23196 -5.23134
upperneck 23.7554 -0.0538666 12.3199
head 9.4207 0.337281 5.11737
rclavicle 1.15544e-014 1.11319e-014
rhumerus -83.4915 30.6253 -114.845
rradius 86.3586
rwrist 30.8739
rhand -47.8091 -0.681395
rfingers 7.12502
rthumb -20.485 -29.6207
lclavicle 1.15544e-014 1.11319e-014
lhumerus -85.1169 -43.5965 119.978
lradius 75.5679
lwrist -28.6171
lhand -46.5242 -1.76867
lfingers 7.12502
lthumb -19.2498 27.2986
rfemur 165.768 53.9055 -172.842
rtibia 27.8992
rfoot -51.9144 -45.9141
rtoes -26.2312
lfemur -8.13934 -10.8684 -14.2132
ltibia 25.3146
lfoot -25.7136 4.68341
ltoes -12.0211
37
root 12.8493 18.079 9.77814 -173.209 -5.57101 -178.59
lowerback -7.74603 1.00981 -2.67706
upperback 0.374295 1.56059 0.354912
thorax 4.65415 0.69651 2.05358
lowerneck -12.1418 2.22181 -5.46464
upperneck 23.7639 -0.0479533 12.4617
head 9.4249 0.335277 5.21115
rclavicle -3.90115e-014 7.7526e-015
rhumerus -83.5761 30.73 -114.868
rradius 86.3272
rwrist 30.9093
rhand -47.8583 -0.638866
rfingers 7.12502
rthumb -20.5323 -29.5731
lclavicle -3.90115e-014 7.7526e-015
lhumerus -85.0489 -43.5129 119.978
lradius 75.5431
lwrist -28.6587
lhand -46.466 -1.99581
lfingers 7.12502
lthumb -19.1938 27.0771
rfemur 165.903 53.8008 -172.986
rtibia 27.7772
rfoot -51.6674 -46.0401
rtoes -26.0312
lfemur -8.2645 -10.9848 -14.4084
ltibia 25.4584
lfoot -25.7624 4.81261
ltoes -12.2547
